<svg width="261" height="107" viewBox="0 0 261 107" fill="none" xmlns="http://www.w3.org/2000/svg">
<path d="M159.497 -229.614C177.653 -234.145 194.377 -236.265 209.668 -235.974C241.085 -235.359 266.502 -224.494 285.21 -203.635C300.132 -187.041 310.783 -164.104 316.84 -135.578C322.017 -111.156 323.778 -83.2861 322.064 -52.7235C318.861 4.17749 304.445 54.6358 292.512 73.2087C276.997 97.3598 254.2 109.448 229.934 106.391C198.491 102.427 170.616 74.8077 157.21 34.3442C141.33 -13.5204 117.861 -23.2652 85.3404 -36.7131C66.6685 -44.4527 45.5018 -53.2183 20.731 -70.7496C6.51743 -80.8069 -0.451316 -92.8954 0.022643 -106.687C0.647643 -125.151 14.2622 -146.27 40.481 -169.453C52.7674 -180.229 65.8195 -189.984 79.6268 -198.729L79.6945 -198.744C108.632 -213.281 135.32 -223.583 159.497 -229.614ZM250.715 103.688C266.392 99.7765 280.549 88.9952 291.215 72.3962C303.043 53.9796 317.335 3.84416 320.528 -52.8121C322.7 -91.2131 320.83 -161.713 284.075 -202.635C265.658 -223.14 240.616 -233.838 209.632 -234.463C174.314 -235.156 130.856 -222.682 80.4237 -197.494C78.6424 -196.401 3.00181 -149.515 1.51223 -106.703C1.06431 -93.4631 7.81431 -81.8069 21.5695 -72.0725C46.2101 -54.6402 67.2987 -45.9006 85.9237 -38.1975C118.83 -24.5725 142.59 -14.7183 158.668 33.8077C171.892 73.74 199.278 100.969 230.148 104.881C237.08 105.776 243.934 105.375 250.715 103.688Z" fill="#EDB861"/>
</svg>
